{
  "accessors": [
    {
      "bufferView": 2,
      "componentType": 5126,
      "count": 5511,
      "max": [
        0.85312700271606445,
        1.5021390914916992,
        0.26547145843505859
      ],
      "min": [
        -0.80907225608825684,
        -0.82017958164215088,
        -1.0122723579406738
      ],
      "type": "VEC3"
    },
    {
      "bufferView": 2,
      "byteOffset": 66132,
      "componentType": 5126,
      "count": 5511,
      "max": [
        0.99970173835754395,
        0.99997997283935547,
        0.9998629093170166
      ],
      "min": [
        -0.99949145317077637,
        -0.99903827905654907,
        -0.999930739402771
      ],
      "type": "VEC3"
    },
    {
      "bufferView": 3,
      "componentType": 5126,
      "count": 5511,
      "max": [
        1,
        1,
        1,
        1
      ],
      "min": [
        0.043137256056070328,
        0.027450980618596077,
        0.0039215688593685627,
        1
      ],
      "type": "VEC4"
    },
    {
      "bufferView": 1,
      "componentType": 5126,
      "count": 5511,
      "max": [
        0.99315464496612549,
        0.99995964765548706
      ],
      "min": [
        0,
        0
      ],
      "type": "VEC2"
    },
    {
      "bufferView": 0,
      "componentType": 5125,
      "count": 29202,
      "max": [
        5510
      ],
      "min": [
        0
      ],
      "type": "SCALAR"
    }
  ],
  "asset": {
    "extras": {
      "author": "Hannah Eliason (https://sketchfab.com/haniloo)",
      "license": "CC-BY-4.0 (http://creativecommons.org/licenses/by/4.0/)",
      "source": "https://sketchfab.com/3d-models/craft-teddy-bear-photogrammetry-cb81496a28ba423eb5e3bd2149143bc8",
      "title": "Craft Teddy Bear Photogrammetry"
    },
    "generator": "Sketchfab-8.25.0",
    "version": "2.0"
  },
  "bufferViews": [
    {
      "buffer": 0,
      "byteLength": 116808,
      "byteOffset": 0,
      "name": "floatBufferViews",
      "target": 34963
    },
    {
      "buffer": 0,
      "byteLength": 44088,
      "byteOffset": 116808,
      "byteStride": 8,
      "name": "floatBufferViews",
      "target": 34962
    },
    {
      "buffer": 0,
      "byteLength": 132264,
      "byteOffset": 160896,
      "byteStride": 12,
      "name": "floatBufferViews",
      "target": 34962
    },
    {
      "buffer": 0,
      "byteLength": 88176,
      "byteOffset": 293160,
      "byteStride": 16,
      "name": "floatBufferViews",
      "target": 34962
    }
  ],
  "buffers": [
    {
      "byteLength": 381336,
      "uri": "scene.bin"
    }
  ],
  "images": [
    {
      "uri": "textures/material0.001_baseColor.jpeg"
    }
  ],
  "materials": [
    {
      "doubleSided": true,
      "emissiveFactor": [
        0,
        0,
        0
      ],
      "name": "material0.001",
      "pbrMetallicRoughness": {
        "baseColorFactor": [
          1,
          1,
          1,
          1
        ],
        "baseColorTexture": {
          "index": 0,
          "texCoord": 0
        },
        "metallicFactor": 0,
        "roughnessFactor": 0
      }
    }
  ],
  "meshes": [
    {
      "name": "Model.001_material0.001_0",
      "primitives": [
        {
          "attributes": {
            "COLOR_0": 2,
            "NORMAL": 1,
            "POSITION": 0,
            "TEXCOORD_0": 3
          },
          "indices": 4,
          "material": 0,
          "mode": 4
        }
      ]
    }
  ],
  "nodes": [
    {
      "children": [
        1
      ],
      "name": "RootNode (gltf orientation matrix)",
      "rotation": [
        -0.70710678118654746,
        -0,
        -0,
        0.70710678118654757
      ]
    },
    {
      "children": [
        2
      ],
      "name": "RootNode (model correction matrix)"
    },
    {
      "children": [
        3
      ],
      "matrix": [
        1,
        0,
        0,
        0,
        0,
        0,
        1,
        0,
        0,
        -1,
        0,
        0,
        0,
        0,
        0,
        1
      ],
      "name": "a617cfc252c64a3aae20854321b10a4e.fbx"
    },
    {
      "children": [
        4
      ],
      "name": "RootNode"
    },
    {
      "children": [
        5
      ],
      "matrix": [
        99.421023875469899,
        10.745303040501412,
        -1.7467215422701035e-08,
        0,
        -10.735808668072899,
        99.333177106427556,
        4.2026584664505888,
        0,
        0.45158837087468667,
        -4.1783257566780936,
        99.911649279823081,
        0,
        -7.8574671745300293,
        54.301094055175781,
        35.155860900878906,
        1
      ],
      "name": "Model.001"
    },
    {
      "mesh": 0,
      "name": "Model.001_material0.001_0"
    }
  ],
  "samplers": [
    {
      "magFilter": 9729,
      "minFilter": 9987,
      "wrapS": 10497,
      "wrapT": 10497
    }
  ],
  "scene": 0,
  "scenes": [
    {
      "name": "OSG_Scene",
      "nodes": [
        0
      ]
    }
  ],
  "textures": [
    {
      "sampler": 0,
      "source": 0
    }
  ]
}

